<svg width="81" height="77" viewBox="0 0 81 77" fill="none" xmlns="http://www.w3.org/2000/svg">
<path d="M60.5473 39.5214H57.1044V36.1932C57.1044 35.2915 56.3666 34.5537 55.4649 34.5537C54.5631 34.5537 53.8253 35.2915 53.8253 36.1932V39.5214H50.5135C49.6118 39.5214 48.874 40.2592 48.874 41.1609C48.874 42.0627 49.6118 42.8004 50.5135 42.8004H53.8253V46.1286C53.8253 47.0304 54.5631 47.7681 55.4649 47.7681C56.3666 47.7681 57.1044 47.0304 57.1044 46.1286V42.8004H60.5473C61.4491 42.8004 62.1868 42.0627 62.1868 41.1609C62.1868 40.2592 61.4491 39.5214 60.5473 39.5214Z" fill="#0081F5"/>
<path d="M59.7441 61.3433C55.5961 61.3433 52.2188 64.6715 52.2188 68.7538C52.2188 70.7376 53.0057 72.6231 54.4321 74.0658C55.8749 75.5086 57.7603 76.2956 59.7441 76.2956C63.8265 76.2956 67.1383 72.9182 67.1219 68.7538C67.1219 64.6059 63.8921 61.3433 59.7441 61.3433ZM59.7441 73.0166C57.4324 73.0166 55.4978 71.0655 55.4978 68.7538C55.4978 66.4749 57.3996 64.6223 59.7441 64.6223C62.0558 64.6223 63.8593 66.4421 63.8429 68.7538C63.8429 71.0983 62.0066 73.0166 59.7441 73.0166Z" fill="#0081F5"/>
<path d="M24.6093 61.3433C20.4614 61.3433 17.084 64.6715 17.084 68.7538C17.084 70.7376 17.8709 72.6231 19.2973 74.0658C20.7401 75.5086 22.6255 76.2956 24.6093 76.2956C26.5931 76.2956 28.4786 75.5086 29.9213 74.0658C31.3477 72.6395 32.1347 70.754 32.1347 68.7538C32.1347 64.6715 28.7573 61.3433 24.6093 61.3433ZM24.6093 73.0166C22.2976 73.0166 20.363 71.0655 20.363 68.7538C20.363 66.4749 22.2648 64.6223 24.6093 64.6223C26.9538 64.6223 28.8557 66.4749 28.8557 68.7538C28.8557 71.0655 26.9046 73.0166 24.6093 73.0166Z" fill="#0081F5"/>
<path d="M48.7917 62.95H35.5609C34.6592 62.95 33.9214 63.6877 33.9214 64.5895C33.9214 65.4912 34.6592 66.229 35.5609 66.229H48.7917C49.6935 66.229 50.4312 65.4912 50.4312 64.5895C50.4312 63.6877 49.6935 62.95 48.7917 62.95Z" fill="#0081F5"/>
<path d="M68.8762 41.0955C68.8762 37.5378 67.499 34.1932 64.9742 31.6847C62.4493 29.1763 59.0719 27.7827 55.4814 27.7827C48.1692 27.7827 42.2178 33.7505 42.2178 41.0955C42.2178 44.6533 43.595 48.0143 46.087 50.5719C48.6119 53.1459 51.9401 54.5559 55.4814 54.5559C62.8592 54.5559 68.8762 48.5225 68.8762 41.0955ZM55.4814 51.2769C49.9727 51.2769 45.4968 46.7027 45.4968 41.0955C45.4968 35.5704 49.9727 31.0617 55.4814 31.0617C61.0557 31.0617 65.5972 35.554 65.5972 41.0955C65.5972 46.719 61.0557 51.2769 55.4814 51.2769Z" fill="#0081F5"/>
<path d="M78.8606 19.3228H37.0695C37.0695 19.29 37.0695 19.2572 37.0695 19.2244C37.0695 16.6012 34.8889 14.4043 32.2821 14.3715C29.6425 14.2075 27.3308 16.3225 27.1177 19.1096C27.1177 19.1916 27.1177 19.2572 27.1177 19.3392H20.74C20.1825 19.3392 19.6579 19.6343 19.3464 20.1098L7.80424 38.4723C6.80414 39.5379 1.80364 45.0303 0.836329 49.1618C-0.442488 54.3591 2.32828 64.5896 2.45944 65.0159C2.65618 65.7209 3.29559 66.2127 4.03337 66.2127H13.7885C14.6902 66.2127 15.428 65.4749 15.428 64.5732C15.428 63.6715 14.6902 62.9337 13.7885 62.9337H5.29579C4.47604 59.5563 3.23001 53.1131 4.01698 49.9324C4.01698 49.916 4.01698 49.916 4.01698 49.8996C4.37767 48.3421 5.67288 46.2927 7.05007 44.4565C7.06646 44.4565 7.08286 44.4565 7.09925 44.4565H28.7408C29.6425 44.4565 30.3803 43.7187 30.3803 42.8169V29.3894C30.3803 28.4876 29.6425 27.7499 28.7408 27.7499H18.3791L21.6253 22.569H77.2047V62.9173H70.2859C69.3842 62.9173 68.6464 63.6551 68.6464 64.5568C68.6464 65.4586 69.3842 66.1963 70.2859 66.1963H78.8606C79.7623 66.1963 80.5001 65.4586 80.5001 64.5568V20.9623C80.5001 20.0606 79.7623 19.3228 78.8606 19.3228ZM27.1177 31.0617V41.2102H9.75526C9.952 40.9807 10.1487 40.784 10.2963 40.62C10.3783 40.538 10.4439 40.4561 10.493 40.3577L16.3297 31.0617H27.1177ZM33.7905 19.3228H30.3803C30.4623 18.4702 31.1836 17.5685 32.1018 17.6341C32.1346 17.6341 32.1837 17.6341 32.2165 17.6341C33.0527 17.6341 33.7905 18.3719 33.7905 19.2244C33.7905 19.2572 33.7905 19.29 33.7905 19.3228Z" fill="#0081F5"/>
<path d="M32.0853 12.5351C33.0034 12.5351 33.7248 11.7973 33.7248 10.8955V5.92784C33.7248 5.02611 32.987 4.28833 32.0853 4.28833C31.1836 4.28833 30.4458 5.02611 30.4458 5.92784V10.8955C30.4458 11.7973 31.1836 12.5351 32.0853 12.5351Z" fill="#0081F5"/>
<path d="M38.9058 14.1418C39.3321 14.1418 39.742 13.9779 40.0535 13.6664L43.2669 10.4365C43.9063 9.79712 43.9063 8.76423 43.2669 8.12482C42.6275 7.48541 41.5946 7.48541 40.9552 8.12482L37.7418 11.3547C37.1024 11.9941 37.1024 13.0269 37.7418 13.6664C38.0697 13.9779 38.4795 14.1418 38.9058 14.1418Z" fill="#0081F5"/>
<path d="M24.2487 13.6664C24.5766 13.9779 24.9864 14.1418 25.4127 14.1418C25.8226 14.1418 26.2489 13.9779 26.5604 13.6664C27.1998 13.0269 27.1998 11.9941 26.5604 11.3547L23.3469 8.12482C22.7075 7.48541 21.6746 7.48541 21.0352 8.12482C20.3958 8.76423 20.3958 9.79712 21.0352 10.4365L24.2487 13.6664Z" fill="#0081F5"/>
</svg>
