<svg width="81" height="81" viewBox="0 0 81 81" fill="none" xmlns="http://www.w3.org/2000/svg">
<g clip-path="url(#clip0_309_1618)">
<path d="M55.9827 45.0584L55.9827 45.0584L42.6494 65.0584L43.2734 65.4744L42.6494 65.0584C41.7452 66.4148 39.826 66.6048 38.6733 65.4521L38.1429 65.9824L38.6733 65.4521L28.6731 55.4522C28.6731 55.4522 28.6731 55.4522 28.6731 55.4522C27.6643 54.4434 27.6643 52.8077 28.6731 51.7988C29.6819 50.79 31.3177 50.79 32.3265 51.7988L39.4514 58.9237L40.0983 59.5706L40.6057 58.8094L51.6837 42.1925L51.6837 42.1925C52.4751 41.0054 54.0791 40.6845 55.2661 41.476C56.4533 42.2675 56.7741 43.8714 55.9827 45.0584Z" fill="#0081F5" stroke="white" stroke-width="1.5"/>
<path d="M59.2219 7.20858L59.3986 7.70871H59.9291H77.1667C78.5935 7.70871 79.75 8.86527 79.7498 10.2919V26.9587V76.9587C79.7498 78.3854 78.5933 79.542 77.1666 79.542H3.83328C2.40656 79.542 1.25 78.3854 1.25 76.9587V26.9587V10.292C1.25 8.86527 2.40656 7.70871 3.83328 7.70871H14.4042H14.9346L15.1114 7.20861C16.3815 3.61453 19.806 1.04199 23.8333 1.04199C27.8605 1.04199 31.2852 3.61454 32.5554 7.20861L32.7321 7.70871H33.2625H41.0709H41.6014L41.7781 7.20858C43.048 3.61455 46.4729 1.04199 50.5 1.04199C54.5271 1.04199 57.952 3.61455 59.2219 7.20858ZM7.16672 12.8753H6.41672V13.6253V23.6251V24.3751H7.16672H73.8333H74.5833V23.6251V13.6251V12.8751H73.8333H59.9291H59.3986L59.2219 13.3752C57.952 16.9693 54.5271 19.5418 50.5 19.5418C49.0733 19.5418 47.9167 18.3853 47.9167 16.9586C47.9167 15.5318 49.0733 14.3753 50.5 14.3753C52.7566 14.3753 54.5833 12.5486 54.5833 10.292C54.5833 8.03548 52.7566 6.20855 50.5 6.20855C48.2434 6.20855 46.4167 8.03528 46.4167 10.2918C46.4167 11.7186 45.2602 12.8751 43.8334 12.8751H33.2625H32.7321L32.5553 13.3752C31.2854 16.9693 27.8605 19.5418 23.8334 19.5418C22.4067 19.5418 21.2502 18.3853 21.2502 16.9586C21.2502 15.5318 22.4067 14.3753 23.8334 14.3753C26.09 14.3753 27.9167 12.5486 27.9167 10.292C27.9167 8.03539 26.0898 6.20871 23.8333 6.20871C21.5767 6.20871 19.75 8.03543 19.75 10.292C19.75 11.7187 18.5934 12.8753 17.1667 12.8753H7.16672ZM6.41672 73.6253V74.3753H7.16672H73.8333H73.8334H74.5834V73.6253V30.292V29.542H73.8334H7.16672H6.41672V30.292V73.6253Z" fill="#0081F5" stroke="white" stroke-width="1.5"/>
</g>
<defs>
<clipPath id="clip0_309_1618">
<rect width="80" height="80" fill="white" transform="translate(0.5 0.291992)"/>
</clipPath>
</defs>
</svg>
