<svg width="81" height="77" viewBox="0 0 81 77" fill="none" xmlns="http://www.w3.org/2000/svg">
<path d="M78.9064 60.3675H65.6762V32.2464C65.6762 29.085 64.3906 25.993 62.1491 23.7636L55.4328 17.0836L61.1523 11.3641C61.7747 10.7417 61.7747 9.73269 61.1523 9.11019L52.8583 0.816123C52.2359 0.193779 51.2269 0.193779 50.6044 0.816123L44.8563 6.56456L41.2403 2.96815C40.6175 2.34894 39.6109 2.35003 38.9897 2.97112L32.6798 9.28097C32.3811 9.57972 32.2131 9.98503 32.2131 10.4078C32.2131 10.8307 32.3811 11.2358 32.6798 11.5347L36.2828 15.1377L27.1022 24.3188C26.4798 24.9411 26.4798 25.9502 27.1022 26.5727L28.3692 27.8397L21.3652 34.8439C20.7428 35.4663 20.7428 36.4753 21.3652 37.0978L24.8711 40.6038C25.1823 40.915 25.5902 41.0705 25.998 41.0705C26.4058 41.0705 26.8138 40.915 27.1248 40.6038L34.1291 33.5997L35.3961 34.8667C35.7073 35.178 36.1152 35.3335 36.523 35.3335C36.9308 35.3335 37.3387 35.178 37.6498 34.8667L46.8308 25.6858L50.995 29.85C52.6527 31.5078 53.5656 33.7119 53.5656 36.0563V60.3677H21.6953V54.7899H31.7352C32.6153 54.7899 33.3288 54.0764 33.3288 53.1963V47.2855C33.3288 46.4053 32.6153 45.6919 31.7352 45.6919H8.6275C7.74734 45.6919 7.03391 46.4053 7.03391 47.2855V53.1963C7.03391 54.0764 7.74734 54.7899 8.6275 54.7899H18.508V60.3675H2.09359C1.21344 60.3675 0.5 61.081 0.5 61.9611V74.6147C0.5 75.4949 1.21344 76.2083 2.09359 76.2083H78.9064C79.7866 76.2083 80.5 75.4949 80.5 74.6147V61.9611C80.5 61.081 79.7866 60.3675 78.9064 60.3675ZM51.7316 4.1969L57.7719 10.2372L53.173 14.8361L47.1162 8.81237L51.7316 4.1969ZM25.998 37.223L24.7456 35.9707L30.623 30.0933L31.8753 31.3457L25.998 37.223ZM36.5231 31.486L35.2567 30.2196C35.2564 30.2192 35.2563 30.2191 35.2559 30.2188L31.75 26.7128C31.7497 26.7125 31.7495 26.7124 31.7492 26.7121L30.4828 25.4457L38.5369 17.3917L44.5772 23.4319L36.5231 31.486ZM53.2489 27.596L36.0605 10.4078L40.1195 6.34878L59.9016 26.0233C61.5461 27.6588 62.4891 29.9271 62.4891 32.2463V60.3672H56.7531V36.056C56.7531 32.8605 55.5086 29.856 53.2489 27.596ZM10.2211 51.6025V48.8791H30.1414V51.6025H10.2211ZM77.3128 73.0211H3.68719V63.5549H77.3127V73.0211H77.3128Z" fill="#0081F5"/>
</svg>
